<svg data-name="Layer 1" xmlns="http://www.w3.org/2000/svg" viewBox="0 0 848.67538 469.44265">
  <path d="M436.70324 467.03998a207.53414 207.53414 0 01-40.54 1.96c-32.66016-1.65-64.78027-11.15-92.23-29.01-12.17041-7.92-23.78027-17.65-30.08008-30.72-8.55029-17.75-5.56006-40.22 6.6499-55.68a56.01494 56.01494 0 0116.14014-13.77c.91992-.52 1.85986-1.02 2.81006-1.5a60.55749 60.55749 0 0133.48-6.13c19.57959 2.14 37.6499 14.1 48.08984 30.81 9.29981 14.9 12.54 32.48 14.4502 50.1.35986 3.32.66992 6.65.96973 9.96a146.37967 146.37967 0 01-7.81006 28.06 9.81128 9.81128 0 00-.43994 1.36q3 6.51 5.71 13.14a11.55657 11.55657 0 005.53027 1.4h37.18994z" fill="#f2f2f2"/>
  <path d="M393.13293 467.89002a2.03341 2.03341 0 01-2.69971-1.06c-.16016-.38-.31006-.76-.47021-1.14q-2.15992-5.25-4.52979-10.4a316.78429 316.78429 0 00-88.17041-114.1 1.47787 1.47787 0 01-.61963-1.37 2.03241 2.03241 0 012.81006-1.5 1.92729 1.92729 0 01.41992.26 317.52029 317.52029 0 0144.25977 43.95 322.504 322.504 0 0134.91015 51.66q4.06494 7.5 7.71973 15.21c.48047 1.02.96045 2.05 1.43018 3.07995q3 6.51 5.71 13.14c.03027.07.06006.15.09033.22a1.47968 1.47968 0 01-.86039 2.05005z" fill="#fff"/>
  <circle cx="260.50305" cy="297" r="39" fill="#0017e4"/>
  <path d="M256.63725 311.8776a4.04474 4.04474 0 01-2.43372-.80842l-.04353-.03268-9.16526-7.01725a4.07192 4.07192 0 114.95308-6.46445l5.93657 4.55208 14.029-18.29592a4.07178 4.07178 0 015.709-.75362l-.08723.11844.08949-.11671a4.07649 4.07649 0 01.75362 5.709l-16.50151 21.52039a4.07356 4.07356 0 01-3.23951 1.58914z" fill="#fff"/>
  <path d="M847.48469 469.44266H1.19069a1.19069 1.19069 0 010-2.38137h846.294a1.19069 1.19069 0 010 2.38137z" fill="#3f3d56"/>
  <circle cx="165.54584" cy="107.00476" r="28.93994" fill="#2f2e41"/>
  <ellipse cx="312.2682" cy="300.329" rx="11.97515" ry="8.98136" transform="rotate(-45 -35.4272944 404.73282582)" fill="#2f2e41"/>
  <ellipse cx="360.35876" cy="292.78538" rx="8.98136" ry="11.97515" transform="rotate(-66.87 109.4993801 318.1731967)" fill="#2f2e41"/>
  <path d="M246.13154 274.08706a10.74265 10.74265 0 00-6.25285-15.23973l-41.81616-88.45907-19.12791 13.41307 47.1186 82.7347a10.80091 10.80091 0 0020.07832 7.55106z" fill="#ffb8b8"/>
  <path d="M207.65206 185.14633l-22.20855 9.93087a4.81689 4.81689 0 01-6.60409-3.09631l-6.54916-23.35317a13.37737 13.37737 0 0124.45588-10.84991l13.00137 20.38209a4.81688 4.81688 0 01-2.09545 6.98643z" fill="#ccc"/>
  <path d="M105.0845 282.85703a10.74271 10.74271 0 007.44458-14.69441l39.60233-89.47208-22.65457-5.706-31.80415 89.74237a10.80091 10.80091 0 007.41184 20.13012zM94.289 445.033l11.52 4.194 21.661-42.438-17.003-6.19-16.178 44.434z" fill="#ffb8b8"/>
  <path d="M124.1311931 468.0135197l-36.2055334-13.18240248 5.09320128-13.9885024 22.2170592 8.08921148a14.88686 14.88686 0 018.89527634 19.081684l-.00000342.0000094zM121.53775 420.611a4.77367 4.77367 0 01-2.04387-.45889l-13.23928-6.2709a4.79861 4.79861 0 01-2.46853-5.9897l37.36377-103.46818a4.81658 4.81658 0 018.66077-.84149l19.76235 32.93709a4.82207 4.82207 0 01.052 4.86807l-43.88711 76.802a4.84031 4.84031 0 01-4.2001 2.422z" fill="#2f2e41"/>
  <circle cx="166.46368" cy="113.91339" r="24.56103" fill="#ffb8b8"/>
  <path d="M201.21069 225.58298l-43.488-11.95955-23.12961-46.25868a14.576 14.576 0 0113.03751-21.09462H182.23a14.557 14.557 0 019.73013 3.72135c9.28142 8.3145 28.78088 32.2848 9.43874 75.17337z" fill="#ccc"/>
  <path d="M146.77039 194.69207l-22.03343-10.31358a4.81687 4.81687 0 01-1.97428-7.02163l13.39047-20.22269a13.37737 13.37737 0 0124.19805 11.41336l-6.92414 23.16293a4.81689 4.81689 0 01-6.65667 2.98161z" fill="#ccc"/>
  <path fill="#ffb8b8" d="M173.428 456.629h12.259l5.833-47.288-18.095.001.003 47.287z"/>
  <path d="M209.33166581 468.01180363l-38.53072996.00176192-.00068074-14.88686999 23.64388998-.00108118a14.88686 14.88686 0 0114.88752072 14.88616925v.00002zM178.05681 438.60938a4.79132 4.79132 0 01-4.69769-3.81439c-3.524-16.60391-21.82634-101.6514-36.11121-145.4588-14.53417-44.57049 10.2183-64.87171 15.32784-68.48853a3.7629 3.7629 0 001.25282-1.51258l3.7122-8.16606a4.83433 4.83433 0 014.39715-2.82656h.03006c27.82859.16621 37.184 8.93856 39.91435 12.70277a4.761 4.761 0 01.75368 3.92623l-17.60768 72.64473a3.75009 3.75009 0 00-.07291 1.37669l17.51827 131.89992a4.81781 4.81781 0 01-4.22284 5.42l-19.62855 2.26417a4.92263 4.92263 0 01-.56549.03241zM140.65576 98.46458a33.40494 33.40494 0 0019.09068 5.89985 20.47079 20.47079 0 01-8.11361 3.338 67.35875 67.35875 0 0027.514.1546 17.80736 17.80736 0 005.75978-1.97824 7.28919 7.28919 0 003.55521-4.7547c.60365-3.44852-2.08348-6.58157-4.876-8.69308a35.96737 35.96737 0 00-30.22452-6.03968c-3.37626.87272-6.75852 2.34726-8.9515 5.05866s-2.84257 6.8915-.75322 9.68353z" fill="#2f2e41"/>
  <circle cx="591.50305" cy="192" r="13" fill="#0017e4"/>
  <path d="M590.21445 196.9592a1.34825 1.34825 0 01-.81124-.26947l-.01451-.01089-3.05509-2.33909a1.3573 1.3573 0 111.651-2.15481l1.97885 1.51736 4.67635-6.09864a1.35725 1.35725 0 011.903-.25121l-.02908.03948.02983-.0389a1.35883 1.35883 0 01.25121 1.903l-5.50051 7.17346a1.35784 1.35784 0 01-1.07981.52971z" fill="#fff"/>
  <circle cx="591.50305" cy="230" r="13" fill="#0017e4"/>
  <path d="M590.21445 234.9592a1.34825 1.34825 0 01-.81124-.26947l-.01451-.01089-3.05509-2.33909a1.3573 1.3573 0 111.651-2.15481l1.97885 1.51736 4.67635-6.09864a1.35725 1.35725 0 011.903-.25121l-.02908.03948.02983-.0389a1.35883 1.35883 0 01.25121 1.903l-5.50051 7.17346a1.35784 1.35784 0 01-1.07981.52971z" fill="#fff"/>
  <circle cx="598.50305" cy="274" r="13" fill="#0017e4"/>
  <path d="M597.21445 278.9592a1.34825 1.34825 0 01-.81124-.26947l-.01451-.01089-3.05509-2.33909a1.3573 1.3573 0 111.651-2.15481l1.97885 1.51736 4.67635-6.09864a1.35725 1.35725 0 011.903-.25121l-.02908.03948.02983-.0389a1.35883 1.35883 0 01.25121 1.903l-5.50051 7.17346a1.35784 1.35784 0 01-1.07981.52971z" fill="#fff"/>
  <path d="M723.85909 382.53946c-.13479 0-.21961-.00349-.24924-.00523l-16.13966.00174v-2.3797h16.198c.375.01336 8.02654.22949 15.07646-8.32488 10.50588-12.74905 19.13345-44.30968.57285-122.264-24.95721-104.82061-4.14182-197.42377 5.9658-232.37211a11.60395 11.60395 0 00-11.16442-14.8156H493.08469a11.65594 11.65594 0 00-9.3994 4.78438c-4.28183 5.89-10.15787 17.20518-13.8349 37.665l-2.34194-.42063c3.75663-20.90428 9.82381-32.55237 14.25205-38.64338a14.04138 14.04138 0 0111.32419-5.76508h241.03424a13.984 13.984 0 0113.45058 17.85646c-10.05562 34.76707-30.76324 126.88976-5.93676 231.16018 18.82147 79.05061 9.77327 111.29506-1.13117 124.42465-7.19254 8.65956-15.11741 9.0982-16.64249 9.0982z" fill="#e6e6e6"/>
  <path d="M680.42959 425.96896c-.13479 0-.21961-.00349-.24924-.00523l-16.13965.00174v-2.3797h16.198c.37706.01162 8.02654.22949 15.07646-8.32488 10.50588-12.74905 19.13345-44.30968.57285-122.264-24.95721-104.82061-4.14182-197.42377 5.9658-232.37211a11.60395 11.60395 0 00-11.16442-14.8156H449.65518a11.65594 11.65594 0 00-9.3994 4.78438c-4.28183 5.89-10.15787 17.20518-13.83476 37.665l-2.34222-.42063c3.75677-20.90429 9.82395-32.55238 14.25219-38.64338a14.04138 14.04138 0 0111.32419-5.76508h241.03425a13.984 13.984 0 0113.45058 17.85646c-10.05562 34.76707-30.76324 126.88976-5.93675 231.16018 18.82146 79.05061 9.77326 111.29506-1.13117 124.42465-7.19255 8.65957-15.1174 9.0982-16.6425 9.0982z" fill="#ccc"/>
  <path d="M654.77306 335.88001c-24.83007-104.27-4.12011-196.4 5.93995-231.16a13.99387 13.99387 0 00-13.4502-17.86H406.22326a14.03109 14.03109 0 00-11.32031 5.76c-9.73 13.38-29.91993 57.75-7.36963 180.52 12.05957 65.68 11.87988 110.46 7.93994 139.96-2.21045 16.61005-5.62012 28.37-8.71045 36.30005l-.32959.84a13.63942 13.63942 0 00-1 5.05 13.83428 13.83428 0 004.52979 10.4 13.24271 13.24271 0 003.16992 2.2 13.41211 13.41211 0 003.03027 1.11 13.67578 13.67578 0 003.27.39h237.31984c.03028 0 .10987.01.25.01 1.52 0 9.4502-.44 16.64014-9.1 10.8999-13.13007 19.94971-45.37006 1.12988-124.42005zm-2.89013 122.81c-7.04981 8.56-14.69971 8.34-15.06983 8.33H399.43322a11.63613 11.63613 0 01-9.63037-5.11 11.36694 11.36694 0 01-1.60986-9.43 9.81128 9.81128 0 01.43994-1.36 146.37967 146.37967 0 007.81006-28.06c5.64013-30.75 6.68994-78.2-6.56983-150.35-22.37988-121.86-2.58984-165.56 6.94971-178.69a11.68138 11.68138 0 019.40039-4.78h241.03955a11.60377 11.60377 0 0111.16016 14.81c-10.10987 34.95-30.91993 127.56-5.96 232.38 18.56009 77.95 9.93021 109.51-.58004 122.26z" fill="#3f3d56"/>
  <path d="M540.26249 200.40033h-124.186a9.51879 9.51879 0 110-19.03758h124.186a9.51879 9.51879 0 110 19.03758zM540.26249 241.40033h-124.186a9.51879 9.51879 0 110-19.03758h124.186a9.51879 9.51879 0 110 19.03758zM550.26249 283.40033h-124.186a9.51879 9.51879 0 110-19.03758h124.186a9.51879 9.51879 0 110 19.03758zM557.26249 327.40033h-124.186a9.51879 9.51879 0 110-19.03758h124.186a9.51879 9.51879 0 110 19.03758z" fill="#ccc"/>
  <path d="M557.31515 126.49056h-89.2387a9.5188 9.5188 0 110-19.03759h89.2387a9.518795 9.518795 0 110 19.03759z" fill="#0017e4"/>
  <circle cx="606.50305" cy="317.88152" r="13" fill="#ccc"/>
  <path d="M563.26249 370.40033h-124.186a9.51879 9.51879 0 110-19.03758h124.186a9.51879 9.51879 0 110 19.03758z" fill="#ccc"/>
  <circle cx="612.50305" cy="360.88152" r="13" fill="#ccc"/>
</svg>